<svg xmlns="http://www.w3.org/2000/svg" viewBox="0 0 616.28 1276.41"><defs><style>.cls-1{fill:#ff9e5c;}.cls-2{fill:#e04b00;}.cls-3{fill:#ff5b00;}.cls-4{fill:#c14108;}.cls-5{fill:#c4b8b5;}.cls-6{fill:#6b2a18;}.cls-7{fill:#252533;}.cls-8{fill:#ffb37b;}.cls-9{fill:#131516;}.cls-10{fill:#fff;}.cls-11{fill:#afa2a0;}.cls-12{fill:#070404;}.cls-13{fill:#323244;}.cls-14{fill:#774320;}</style></defs><title>BEGINNER</title><g id="Capa_2" data-name="Capa 2"><g id="Capa_1-2" data-name="Capa 1"><path class="cls-1" d="M13.74,642.8S1.09,587.49,18.6,584.68c8.34-1.34,12.78,13.2,23.38,15.9,20.25,5.18,35.75,30,35.75,30Z"/><rect class="cls-2" x="121.85" width="494.43" height="637.67" rx="55.52"/><path class="cls-3" d="M536.4,55.52V582.16a55.52,55.52,0,0,1-55.52,55.52H97.5A55.52,55.52,0,0,1,42,584.92C42,584,42,583.08,42,582.16V55.52A55.51,55.51,0,0,1,97.5,0H480.88A55.51,55.51,0,0,1,536.4,55.52Z"/><path class="cls-4" d="M105.59,626.05l-7.12,11.63h-1A55.52,55.52,0,0,1,42,584.92Z"/><path class="cls-4" d="M536.4,436.53V582.16a55.52,55.52,0,0,1-55.52,55.52H364.62l77.07-219.84c41.18,4.89,51,2.56,51,2.56S517.75,411.78,536.4,436.53Z"/><path class="cls-5" d="M366.05,1181.58s-7.5-34.64,54.65-61.69l26.91,26.57-40.15,51.9Z"/><path class="cls-5" d="M83.61,1183.83s0-35.45,66.47-48.74l20.68,31.66L120.54,1209Z"/><path class="cls-6" d="M95.89,1236.56l-3.9,7.09-47.87-27L75.36,1160a15.35,15.35,0,0,1,20.86-6l53.69,30.17A15.36,15.36,0,0,1,156,1205l-.15.27a15.36,15.36,0,0,0,6,20.87l16.17,1.23a43.14,43.14,0,0,1,43.14,43.14v6H180.78A110.35,110.35,0,0,1,96.23,1237Z"/><path class="cls-6" d="M556,1246.87v-5.95a43.15,43.15,0,0,0-43.14-43.14H476.16a15.36,15.36,0,0,1-15.36-15.36v-.31a15.37,15.37,0,0,0-15.37-15.36H370.65a15.36,15.36,0,0,0-15.36,15.36v64.76h68.14v-8.1l17,8.1Z"/><path class="cls-7" d="M215.32,667.51c19.84-9.69,3.18-1.62-1.33.44-9.1,4.15-18.33,8-27.63,11.68s-19,7-28.62,9.93c.25-.07,2.74,8.19,11,6.62-3.43.65-18.86,0-6.44,1.54,2.17.27,15.48,9.12,8,3.24a105,105,0,0,1-8.92-8.35C154.7,686,151.78,682,144.27,672.3c-7.62-9.88-14.92-20.06-21.84-30.44C90.7,594.3,16.52,642.8,48.28,690.4c23.55,35.3,52.89,82,95.88,94.07,26.31,7.4,41.36-10,65.7-19,18.46-6.86,36.32-15.18,54-23.81,21.75-10.62,24.79-43,12.8-61.35-14.46-22.09-39.66-23.39-61.34-12.8Z"/><path class="cls-8" d="M113.74,629.2c-.69,36.1-90.51,56.28-108.68,7.35-6.33-17.08-8.52-33.91,4.26-41.12,15.6-8.79,5.23,36.07,17,34.06,0,0-8.46-46.06,2.12-52.09C47,566.86,45.23,596,50.7,609.53l4.62,18S114.12,609.83,113.74,629.2Z"/><path class="cls-7" d="M481.82,980.42C431.3,944.1,347,914,328.58,907.63a45,45,0,0,0-19.46-4.44H165.35a45.28,45.28,0,0,0-29.14,80c24.06,39.42,48,83.13,54.21,101.5-11.35,15-81.19,48.17-81.19,48.17-8.85,56.31,45.24,76.17,45.24,76.17a588.18,588.18,0,0,0,69.82-34.86c36.85-21.81,56.23-38.8,55.87-88.1-.13-18.61-11.93-49.56-35.05-92.25h61.36c27.48,9.79,80.68,30.85,115,52.76l-48.35,95c25.13,56.8,85.32,32.42,85.32,32.42l41.89-85.68C524.39,1053.45,516.09,1005.06,481.82,980.42Z"/><path class="cls-9" d="M420.27,1044.87,349.78,938.53,134.16,916A45.27,45.27,0,0,0,137,982.7c11.75,19.25,33.1,57.35,33.1,57.35,49.2-40.47,92.63-11.73,92.63-11.73l-18-35h62.54C334.25,1002.94,385.94,1023.4,420.27,1044.87Z"/><path class="cls-7" d="M350.14,939l84.58-210.84C418.55,667.67,338.65,660.4,283.15,663a82.7,82.7,0,0,0-73.06,52l-84,211.18S239,1031.25,350.14,939Z"/><path class="cls-7" d="M382.4,749.14l114.15,32.94c23.33,6.73,47.76-8.19,54.51-31l20.82-70.26c16.24-54.8-69.26-78.21-85.46-23.56L465.6,727.57l54.51-31L406,663.68c-54.9-15.85-78.34,69.65-23.56,85.46Z"/><path class="cls-8" d="M489.37,649.05c19.28,30.53,106.7,7.14,111.47-55.31,1.23-16.16.16-43.57-22.72-39.45-17.62,3.18.09,41.09-13.82,49.79,0,0-3.56-45.26-24.67-42.75s-12.19,29.2-6.49,38.27l.31,20.16S479,632.67,489.37,649.05Z"/><ellipse class="cls-7" cx="323.87" cy="695.13" rx="128.7" ry="50.51"/><polygon class="cls-10" points="295.1 668.52 316.45 831.66 403.36 677.99 295.1 668.52"/><path class="cls-11" d="M399.51,695.47l-.53-.33c-30.5-19.33-70-22.78-107.18-9.36l-.59.22,6,44.6,45.29-25.77,33.3,32.64Z"/><polygon class="cls-12" points="334.19 800.21 316.41 831.66 312.04 798.27 349.18 673.26 349.18 673.26 334.19 800.21"/><path class="cls-12" d="M339.64,718.3h.19a14.4,14.4,0,0,0,13.7-7.86L364,690c4-7.76-.33-16.26-8.59-17l-12.52-1.09c-8.27-.73-15.85,6.74-15.14,14.9l1.86,21.51A10.77,10.77,0,0,0,339.64,718.3Z"/><path class="cls-10" d="M403.35,678l-.52-.33c-30.5-19.34-69.95-22.78-107.18-9.36l-.59.21,6,44.6,44.63-22.53,34,29.41Z"/><polygon class="cls-13" points="316.41 831.66 405.39 668.07 440.9 688.7 410.81 718.27 394.11 722.98 396.32 744.44 316.41 831.66"/><polygon class="cls-13" points="316.4 831.67 296.58 658.56 254.47 670.05 271.1 706.05 285.3 713.46 274.51 733.79 316.4 831.67"/><path class="cls-14" d="M241.15,600.58s-63.75-157.26,28.07-183.4c32-74.56,134.68-38.87,159.37-27.64s42,.31,42,.31c7.45,9.13,5.79,25.64,5.79,25.64l23.93-23.05C524.25,413,532.46,457.9,486.1,513Z"/><path class="cls-8" d="M408,432.55l-70.9-5c-46-3.24-86.09,33.16-89.49,81.3l-1.47,20.74a.35.35,0,0,1-.42.33,29.75,29.75,0,0,0-4.36-.65l-.83-.06c-18.12-1.28-33.9,13-35.23,32l0,.69c-1.34,18.94,12.26,35.34,30.37,36.61l.85.06a30.68,30.68,0,0,0,4.5,0,.35.35,0,0,1,.37.37c-1.55,46.47,32.28,86.07,77,89.23l71.26,5c46,3.24,86.1-33.15,89.49-81.3l6.09-86.25C488.61,477.46,454.05,435.8,408,432.55Z"/><path class="cls-14" d="M271.51,559.2c2.9-41-2-93.25,36.09-118.59,19.31-12.84,39.51-11.34,61-9.83,17.49,1.24,35,2.16,52.48,3.71,18.85,1.67,21.07-28.45,2.15-30.42-19.09-2-38.28-2.71-57.42-4.06-27.33-1.92-52.69.15-76.26,16.88-26.23,18.61-40.63,48.51-42.93,81q-2.09,29.62-4.18,59.23c-1.38,19.62,27.7,21.67,29.08,2.05Z"/><path class="cls-9" d="M361.39,563.72c-.43,6.06-4.33,10.71-8.71,10.4s-7.59-5.46-7.16-11.52,4.32-10.71,8.71-10.4S361.82,557.67,361.39,563.72Z"/><path class="cls-9" d="M441.66,565.55c-.43,6.05-4.33,10.71-8.71,10.4s-7.59-5.47-7.16-11.52,4.32-10.72,8.71-10.41S442.09,559.49,441.66,565.55Z"/><path class="cls-14" d="M492.63,420.4s-1.92,46.28-93.85,39.79-125.27-13.81-131.22,70.42c0,0-9.52-124.92,71.56-130.78S446.2,435.24,492.63,420.4Z"/><path class="cls-14" d="M370.51,552.72l-32.85-11.58c-5.44-1.92-7.77,6.72-2.38,8.62l32.86,11.58c5.43,1.92,7.77-6.72,2.37-8.62Z"/><path class="cls-14" d="M423.5,564.37,457,553.12c5.43-1.82,3.1-10.46-2.37-8.62l-33.46,11.25c-5.42,1.83-3.1,10.47,2.38,8.62Z"/><path class="cls-13" d="M313.35,830.8,264.11,975.16c-1.34,3.93,4.88,5.62,6.21,1.71Q295,904.69,319.56,832.51c1.34-3.93-4.88-5.62-6.21-1.71Z"/><path class="cls-14" d="M352.49,640.46h73.26c3.59,0,3.6-5.59,0-5.59H352.49c-3.6,0-3.6,5.59,0,5.59Z"/></g></g></svg>