<svg xmlns="http://www.w3.org/2000/svg" viewBox="0 0 722.04 958.94"><defs><style>.cls-1{fill:#6b2a18;}.cls-2{fill:#252533;}.cls-3{fill:#8f8faa;}.cls-4{fill:#f3eeff;}.cls-5{fill:#c2bad8;}.cls-6{fill:#ffb37b;}.cls-7{fill:#774320;}.cls-8{fill:#131516;}.cls-9{opacity:0.5;}.cls-10{fill:#dddded;}.cls-11{fill:#514e6b;}.cls-12{fill:#74708c;}.cls-13{fill:#a29fbf;}.cls-14{fill:#e04b00;}.cls-15{fill:#ff5b00;}</style></defs><title>SCOUT</title><g id="Capa_2" data-name="Capa 2"><g id="Capa_1-2" data-name="Capa 1"><path class="cls-1" d="M591.7,736.49l-4.06-4.34a43.14,43.14,0,0,0-61-2l-26.75,25.06a15.37,15.37,0,0,1-21.72-.71l-.21-.22a15.35,15.35,0,0,0-21.71-.71L401.69,804.7a15.37,15.37,0,0,0-.71,21.72l44.27,47.26L495,827.09l-5.53-5.91,18-5.73Z"/><path class="cls-2" d="M487.49,758.76,316.16,586.63A58.11,58.11,0,0,0,275,569.51h-64.7V678.94h31.42a27.14,27.14,0,0,1,19.17,7.94L410.11,836.14Z"/><polygon class="cls-3" points="635 449.04 645.4 405.42 624.6 367.12 635 449.04"/><polygon class="cls-4" points="645.41 405.44 493.78 672.02 438.75 648.43 322.05 598.34 51.15 556.1 227.15 262.72 428.09 262.72 425.96 338.49 459.68 269.89 620.85 334.85 645.41 405.44"/><polygon class="cls-5" points="645.41 405.44 493.78 672.02 438.75 648.43 620.85 334.85 645.41 405.44"/><polygon class="cls-5" points="258.6 579.84 428.07 262.74 444.49 302.37 294.78 594.09 258.6 579.84"/><path class="cls-6" d="M205.84,56.33l-73.12-3.48C85.26,50.59,44.87,89,42.51,138.67l-1,21.38a.36.36,0,0,1-.43.35,31.81,31.81,0,0,0-4.5-.57l-.86,0C17,158.9,1.11,174,.18,193.58l0,.71c-.93,19.54,13.45,36.09,32.13,37l.88,0a30.94,30.94,0,0,0,4.63-.15.36.36,0,0,1,.39.38c-.49,47.88,35.27,87.85,81.4,90l73.49,3.5c47.46,2.25,87.85-36.17,90.21-85.82l4.23-88.94C289.87,100.66,253.31,58.58,205.84,56.33Z"/><path class="cls-7" d="M70.4,193.89c2-42.3-4.29-95.95,34.36-122.95,19.57-13.67,40.41-12.6,62.56-11.55,18,.86,36.1,1.39,54.12,2.57,19.44,1.28,21-29.79,1.49-31.37-19.7-1.6-39.48-1.88-59.21-2.82C135.54,26.43,109.48,29.17,85.6,47,59,66.73,44.91,97.85,43.32,131.39l-2.91,61.08c-1,20.23,29,21.65,30,1.42Z"/><path class="cls-7" d="M294.78,45.77S293.89,93.46,199.1,89,69.79,77.69,65.66,164.55c0,0-12.75-128.39,70.59-136.34S247.33,62.14,294.78,45.77Z"/><path class="cls-7" d="M22.74,227.91C2.88,169.37-15.79,79.89,44.26,56.05c25.13-79.71,134-53.76,160.44-44.81s43.08-4,43.08-4c8.57,8.58,8.58,25.67,8.58,25.67l22.13-26.1c26.65,18.62,39.71,63.75-2.1,125l-10.27,51.43-62.34,73.45a81.59,81.59,0,0,1-66.34,28.69l-41.54-2.1A81.59,81.59,0,0,1,22.74,227.91Z"/><circle class="cls-6" cx="248.14" cy="200.41" r="35.85" transform="translate(-70.75 193.3) rotate(-37.65)"/><path class="cls-1" d="M722,736.49,718,732.15a43.14,43.14,0,0,0-61-2l-26.75,25.06a15.37,15.37,0,0,1-21.72-.71l-.21-.22a15.35,15.35,0,0,0-21.71-.71L532,804.7a15.37,15.37,0,0,0-.71,21.72l44.27,47.26,49.73-46.59-5.53-5.91,18-5.73Z"/><path class="cls-2" d="M617.83,758.76,446.5,586.63a58.11,58.11,0,0,0-41.19-17.12H161.83V678.94H372a27.14,27.14,0,0,1,19.17,7.94L540.46,836.14Z"/><rect class="cls-8" x="44.56" y="556.11" width="230.39" height="122.6" rx="53.64"/><polygon class="cls-8" points="181.74 654.15 367.44 678.71 180.13 676.44 181.74 654.15"/><path class="cls-2" d="M17.1,317.84c9.48-54.75,228.33-41,246.54,16.27,26.14,82.24,35.4,289.1,35.4,289.1S169.52,678.71,30.9,639.63C30.9,639.63,10.49,356,17.1,317.84Z"/><g class="cls-9"><circle class="cls-10" cx="513.88" cy="223.47" r="69.37" transform="translate(120.87 622.91) rotate(-68.97)"/><path class="cls-2" d="M569.18,197.52c11.43,29.39,3.34,62.91-25.38,79.1-31,17.45-71,3.92-85.36-28.33A60.9,60.9,0,0,1,489.05,168c32-14.28,65.77,1.25,81,31.49,4.85,9.64,19.31,1.16,14.48-8.46-19-37.8-63.5-56.35-103-38.21-38,17.45-55.7,63.73-38.64,102s62.72,56.44,101.45,40.06c39.93-16.89,56.39-62.45,41.06-101.88C581.48,183.12,565.26,187.44,569.18,197.52Z"/></g><path class="cls-11" d="M569.18,197.52c11.43,29.39,3.34,62.91-25.38,79.1-31,17.45-71,3.92-85.36-28.33A60.9,60.9,0,0,1,489.05,168c32-14.28,65.77,1.25,81,31.49,4.85,9.64,19.31,1.16,14.48-8.46-19-37.8-63.5-56.35-103-38.21-38,17.45-55.7,63.73-38.64,102s62.72,56.44,101.45,40.06c39.93-16.89,56.39-62.45,41.06-101.88C581.48,183.12,565.26,187.44,569.18,197.52Z"/><path class="cls-12" d="M562.41,193.29c11.43,29.39,3.34,62.91-25.38,79.1-31,17.45-71,3.92-85.36-28.33a60.9,60.9,0,0,1,30.61-80.26c32-14.28,65.77,1.25,81,31.49,4.85,9.64,19.31,1.16,14.48-8.46-19-37.8-63.5-56.35-103-38.21-38,17.45-55.7,63.73-38.63,102s62.72,56.44,101.45,40.06c39.92-16.89,56.39-62.45,41.06-101.88C574.7,178.89,558.49,183.21,562.41,193.29Z"/><path class="cls-12" d="M475.26,290q-13.87,45.21-27.76,90.42c-3.18,10.34,13,14.76,16.16,4.46q13.88-45.21,27.76-90.42c3.17-10.34-13-14.76-16.16-4.46Z"/><path class="cls-6" d="M446.22,398.33s56.82,6.61,60.78-33c0,0,26.43-36.32,0-43.27s-56.81-15.52-60.78,0L417.5,386.44Z"/><path class="cls-2" d="M195.52,387.64c37.52,39,78,78.8,123.59,108.2,31.64,20.39,66.18,26.88,96.32-.19,21-18.89,37.18-45.26,51.23-69.64,28.77-49.94-48.44-95-77.18-45.12a397,397,0,0,1-31.25,45.68c-3.21,4.12-3.3,2.88-2.89,3.41-1.53-2,22.75-3.47,24-3.35-9.32-.91,1.59,2-3.43-1.05-9.18-5.61-21.12-13.14-27.49-18.07-29.5-22.82-61.84-54.12-89.69-83.08-40-41.54-103.12,21.72-63.21,63.21Z"/><path class="cls-2" d="M1.7,350.39l47,177c14.74,55.55,101,32,86.2-23.76l-47-177c-14.75-55.55-101-32-86.2,23.77Z"/><path class="cls-13" d="M462,179.41a66.37,66.37,0,0,1,22.48-16.54c4.11-1.89,5.13-7.84,3-11.47-2.48-4.23-7.34-4.9-11.47-3a78.29,78.29,0,0,0-25.87,19.16c-7.14,8,4.67,19.94,11.85,11.86Z"/><path class="cls-14" d="M327.65,958.94H105.26c-17.78,0-32.2-11-32.2-24.47V702.36c0-13.52,14.42-24.47,32.2-24.47H327.65c17.78,0,32.2,11,32.2,24.47V934.47C359.85,948,345.43,958.94,327.65,958.94Z"/><path class="cls-15" d="M313.52,702.36V934.47c0,13.52-14.42,24.47-32.21,24.47H58.93c-17.25,0-31.33-10.29-32.17-23.25,0-.4,0-.81,0-1.22V702.36c0-13.52,14.41-24.47,32.2-24.47H281.31C299.1,677.89,313.52,688.84,313.52,702.36Z"/></g></g></svg>