<svg xmlns="http://www.w3.org/2000/svg" viewBox="0 0 636.12 1479.24"><defs><style>.cls-1{fill:#ffb37b;}.cls-2{fill:#ff9e5c;}.cls-14,.cls-3{fill:none;stroke:#fff;stroke-miterlimit:10;}.cls-3{stroke-width:5.32px;}.cls-4{fill:#252533;}.cls-5{fill:#323244;}.cls-6{fill:#6b2a18;}.cls-7{fill:#131516;}.cls-8{fill:#fff;}.cls-9{fill:#afa2a0;}.cls-10{fill:#070404;}.cls-11{fill:#774320;}.cls-12{fill:#3f0400;}.cls-13{fill:#ffdd50;}.cls-15{fill:#9e9c97;}.cls-16{fill:#f2f2e7;}</style></defs><title>WALKER</title><g id="Capa_2" data-name="Capa 2"><g id="Capa_1-2" data-name="Capa 1"><path class="cls-1" d="M461.24,525.25l-12.39-18.18c-2.14-3.26.57-37.17-13.39-27.55-11.75,8.09-10.09,27.55,1.7,44.32a6.89,6.89,0,0,1-1.42,9.47Z"/><path class="cls-2" d="M435.74,533.31l-.14.11a6.89,6.89,0,0,1-8.77-.38c-7.65-6.71-18.78-7.4-23.55,2.44-5.65,11.65,16.67,8.58,20.49,18.78,5.5,14.67,23,16.86,29.24,15.64l7.72,29.77,19.76-10.92-8.7-26.06c8.91-3.74,12-47.8,1-49-5.19-.56-3.54,6.86-11.57,11.54Z"/><path class="cls-1" d="M464.61,510.33c-5.61-11-41.08,1.49-40.29,22.66s18.25,22.58,21.59,10.13S445,529.5,445,529.5,469.06,519,464.61,510.33Z"/><path class="cls-1" d="M475.52,515.6c-3.5-4.27-20.58-6.89-29.21,6.29s-3.88,29.09,6.29,25.78c11.1-3.61,10.12-18.1,10.12-18.1S482.53,524.13,475.52,515.6Z"/><line class="cls-3" x1="444.6" y1="587.23" x2="491.88" y2="566.17"/><path class="cls-4" d="M285.07,809.23c-24.81,0-41.78-1.56-43.73-1.75l4.13-42.8c1.86.18,126.41,11.34,196.46-30.68,23.72-14.23,32.69-42.49,26.65-84-5.13-35.28-19.45-66.24-19.59-66.54l38.93-18.26c.69,1.46,16.87,36.25,23.06,77.61,11.35,75.78-19.25,111.47-46.93,128.07C409.77,803.44,332.89,809.23,285.07,809.23ZM243.4,786.08l2-21.4h0Z"/><path class="cls-5" d="M333.11,800.21c0,21.87-39.86,39.61-89,39.61s-89-17.74-89-39.61,39.86-39.61,89-39.61S333.11,778.33,333.11,800.21Z"/><path class="cls-6" d="M70,1479.24v-4.5a32.63,32.63,0,0,1,32.63-32.64h27.74A11.62,11.62,0,0,0,142,1430.48v-.23a11.62,11.62,0,0,1,11.62-11.62h56.57a11.62,11.62,0,0,1,11.62,11.62v49H170.24v-6.13l-12.88,6.13Z"/><path class="cls-6" d="M419.35,1478.33v-4.49a32.64,32.64,0,0,0-32.64-32.64H359a11.62,11.62,0,0,1-11.62-11.62v-.23a11.63,11.63,0,0,0-11.62-11.63H279.16a11.63,11.63,0,0,0-11.62,11.63v49h51.55v-6.12l12.89,6.12Z"/><polygon class="cls-4" points="225.12 1425.32 225.26 1046.4 262.41 1046.4 263.41 1425.32 348.68 1424 333.44 967.83 154.41 967.83 140.66 1424 225.12 1425.32"/><polygon class="cls-7" points="154.43 978.2 333.46 978.2 339.38 1145.63 262.67 1145.63 262.44 1056.77 225.29 1056.77 225.22 1145.63 149.05 1145.63 154.43 978.2"/><path class="cls-4" d="M243.85,757.59c-121.61,0-106.52,74.2-106.52,74.2V1121h212V832.09S365.46,757.59,243.85,757.59Z"/><path class="cls-1" d="M144.18,1026.87a129,129,0,0,1,21.88,6c11.95,4.39,21.16-10.73.39-17.93a127.25,127.25,0,0,0-17.13-4.95c7.74-4.4,19.29-12,17.63-17.51C162.76,978.57,147,987,136,998.27c-8.23,8.41-13.09,21.31-16,28.88-.77,1.71-1.53,3.51-2.29,5.5-11,28.71,30.29,45,40.21,38.06,15.45-10.77-22.35-22.81-22.35-22.81s27.65,16.16,35.25,4.25C176.85,1042.78,153.27,1031,144.18,1026.87Z"/><line class="cls-3" x1="128.24" y1="987.61" x2="102.84" y2="1032.71"/><path class="cls-4" d="M101.9,1039.36C97.28,1037-11,979.92.92,884.07c12.39-99.4,162.17-136.56,261-124.24l-8,63.94c-39.56-4.94-87.91.6-126.17,14.46-17.69,6.4-59.22,24.46-62.88,53.81-6.28,50.39,65.93,89.72,66.67,90.1Z"/><polygon class="cls-8" points="189.75 768.73 243.85 927.1 298.42 768.73 189.75 768.73"/><path class="cls-9" d="M298.16,786.23l-.58-.28A124,124,0,0,0,190,786l-.54.26,14.91,43.28,39.45-29.19,39.44,29.19Z"/><polygon class="cls-10" points="254.97 894.69 243.8 927.11 232.73 894.69 244.04 768.74 244.04 768.74 254.97 894.69"/><path class="cls-10" d="M243.75,813.79h.19a12.41,12.41,0,0,0,11.91-8.9l6.19-21A12.41,12.41,0,0,0,250.13,768H237.56a12.42,12.42,0,0,0-11.91,15.93l6.19,21A12.42,12.42,0,0,0,243.75,813.79Z"/><path class="cls-8" d="M298.41,768.73l-.58-.28a124,124,0,0,0-107.58,0l-.55.26L204.62,812l39.44-26,39.44,26Z"/><polygon class="cls-5" points="243.8 927.11 298.42 758.82 337.61 776.02 313.92 807.65 298.42 813.71 304.94 834.59 243.8 927.11"/><polygon class="cls-5" points="243.8 927.11 189.19 758.83 149.99 773.73 173.68 807.65 189.19 813.71 182.67 834.6 243.8 927.11"/><path class="cls-5" d="M240.63,934.83v181c0,4.15,6.44,4.15,6.44,0v-181c0-4.15-6.44-4.15-6.44,0Z"/><path class="cls-11" d="M118.16,673.87s-89.3-150.21.12-191.07c21.06-80.88,131.08-60.47,158-52.87s42.81-6.2,42.81-6.2c9,8.14,9.88,25.21,9.88,25.21l20.78-27.18c27.55,17.24,42.88,61.66,4.22,124.9Z"/><rect class="cls-2" x="214.76" y="689.68" width="57.75" height="94.88" rx="25.67"/><path class="cls-1" d="M262,476.91l-73,5.91c-47.36,3.83-82.5,47.1-78.49,96.65l1.73,21.34a.37.37,0,0,1-.39.4,32.77,32.77,0,0,0-4.54,0l-.85.07C87.82,602.8,74,619.84,75.56,639.35l.06.71c1.58,19.49,18,34.07,36.6,32.56l.88-.07a31.24,31.24,0,0,0,4.58-.74.36.36,0,0,1,.43.32c5.64,47.55,46.22,82.62,92.25,78.89l73.33-5.94c47.36-3.83,82.5-47.1,78.49-96.65L355,559.68C351,510.13,309.34,473.08,262,476.91Z"/><path class="cls-11" d="M142.65,627c-3.42-42.21-16.54-94.62,18.34-126.33,17.66-16.07,38.46-17.68,60.57-19.47,18-1.45,36-3.24,54-4.37,19.45-1.22,17-32.23-2.53-31.31-19.74.94-39.4,3.19-59.09,4.79-28.12,2.28-53.61,8.32-75,29-23.82,23-33.84,55.69-31.13,89.16q2.46,30.48,4.93,60.94c1.64,20.19,31.56,17.77,29.93-2.42Z"/><path class="cls-7" d="M225.06,614.53c.5,6.23-2.75,11.57-7.26,11.94s-8.57-4.39-9.08-10.62,2.75-11.58,7.26-11.94S224.55,608.3,225.06,614.53Z"/><path class="cls-7" d="M316.86,607.09c.5,6.24-2.75,11.58-7.26,11.95s-8.57-4.39-9.08-10.62,2.75-11.58,7.26-11.95S316.35,600.86,316.86,607.09Z"/><path class="cls-11" d="M325.08,566.08c-11.94-13.34-30.59-12.6-40.2,2.83-2.18,3.5,3.34,6.7,5.5,3.22,7.51-12.06,21.05-11.75,30.19-1.55,2.74,3.07,7.24-1.45,4.51-4.5Z"/><path class="cls-11" d="M198.67,580.21c7.39-11.64,20.69-13.51,30.09-2.85,2.71,3.09,7.21-1.44,4.5-4.51-12.14-13.77-30.6-10.82-40.09,4.15-2.21,3.47,3.31,6.67,5.5,3.21Z"/><path class="cls-11" d="M346.23,451.42s5.22,47.41-89.37,55.07-129.69,5.37-122.67,92c0,0-29.08-125.7,52.56-144.25S301.26,473.73,346.23,451.42Z"/><path class="cls-12" d="M295.29,683.18a16.71,16.71,0,1,1-16.71-16.7A16.71,16.71,0,0,1,295.29,683.18Z"/><path class="cls-13" d="M539.62,181.34a82.76,82.76,0,0,0-88.09-82.58c-41,2.57-74.37,35.74-77.21,76.69a82.56,82.56,0,0,0,27,67.24,33.53,33.53,0,0,1,11.2,21.78l.15,1.61c0,10.35,4.88,46.75,44.17,46.75S501,276.43,501,266.08l.2-2.28A31.78,31.78,0,0,1,512,243.05,82.51,82.51,0,0,0,539.62,181.34Z"/><path class="cls-14" d="M430.39,209.53l17.18,74h18.6l17.18-74C486.11,200,427.62,200,430.39,209.53Z"/><path class="cls-15" d="M457.34,346.35h-.95a47.15,47.15,0,0,1-47.16-47.16v-18h95.28v18A47.16,47.16,0,0,1,457.34,346.35Z"/><path class="cls-16" d="M409.23,285.07h95.28c5,0,5-7.81,0-7.81H409.23c-5,0-5,7.81,0,7.81Z"/><path class="cls-16" d="M409.23,300.68h95.28c5,0,5-7.8,0-7.8H409.23c-5,0-5,7.8,0,7.8Z"/><path class="cls-13" d="M379.76,82.37q-5.2-5.19-10.4-10.4c-4.49-4.48-12.71-4.82-17.13,0s-4.79,12.34,0,17.13q5.19,5.2,10.4,10.4c4.48,4.49,12.7,4.82,17.13,0s4.78-12.34,0-17.13Z"/><path class="cls-13" d="M343.58,129.35l-50-20c-14.47-5.8-20.75,17.62-6.44,23.36l50,20c14.47,5.8,20.75-17.62,6.44-23.36Z"/><path class="cls-13" d="M550.93,99.5l15.28-15.28c4.48-4.48,4.82-12.7,0-17.12s-12.34-4.79-17.13,0L533.8,82.37c-4.48,4.49-4.82,12.71,0,17.13s12.34,4.79,17.13,0Z"/><path class="cls-13" d="M577,152.71l50.78-16.89c14.72-4.9,8.41-28.3-6.44-23.36l-50.78,16.89c-14.72,4.9-8.41,28.3,6.44,23.36Z"/><path class="cls-8" d="M530.19,258.63l10.74,10.74c2.52,2.52,6.44-1.4,3.91-3.92l-10.73-10.74c-2.53-2.52-6.44,1.39-3.92,3.92Z"/><path class="cls-13" d="M570.93,234.22l29.6,9.85c14.83,4.94,21.19-18.45,6.44-23.35l-29.61-9.85c-14.82-4.94-21.18,18.45-6.43,23.35Z"/><path class="cls-13" d="M363.57,264.08,348.3,279.35c-4.49,4.49-4.82,12.71,0,17.13s12.34,4.79,17.13,0l15.27-15.27c4.49-4.49,4.82-12.71,0-17.13s-12.34-4.79-17.13,0Z"/><path class="cls-13" d="M337.53,210.87l-37.44,12.45c-14.72,4.9-8.41,28.3,6.44,23.36L344,234.22c14.72-4.89,8.41-28.29-6.44-23.35Z"/><path class="cls-13" d="M468.89,65.13V11.7c0-15.59-24.22-15.61-24.22,0V65.13c0,15.58,24.22,15.61,24.22,0Z"/></g></g></svg>