<svg xmlns="http://www.w3.org/2000/svg" viewBox="0 0 1196.97 1529.62"><defs><style>.cls-1{fill:#6b2a18;}.cls-2{fill:#ffb37b;}.cls-3{fill:#ff9e5c;}.cls-4{fill:#fff;}.cls-5{fill:#252533;}.cls-6{fill:#afa2a0;}.cls-7{fill:#070404;}.cls-8{fill:#323244;}.cls-9{fill:#774320;}.cls-10{fill:#131516;}.cls-11{fill:#ffdd50;}</style></defs><title>RANGER</title><g id="Capa_2" data-name="Capa 2"><g id="Capa_1-2" data-name="Capa 1"><path class="cls-1" d="M926.37,1374l1.45-5.76a43.14,43.14,0,0,0-31.3-52.37L861,1306.92a15.36,15.36,0,0,1-11.15-18.65l.08-.3a15.36,15.36,0,0,0-11.15-18.64l-72.52-18.26a15.37,15.37,0,0,0-18.65,11.14l-11.66,46.33a17,17,0,0,0,12.33,20.62l49.6,12.49,2-7.85,14.54,12Z"/><path class="cls-2" d="M440.7,849.62c5-1.14,12.19,2.35,21,4.17,0,0,26.53-6.49,22.72,5.92-4,12.95-14.06,16.52-24.29,16.39,9.84,14.92,25.74,29.13,18.31,39.74-14.17,20.2-42.88-20-42.88-20a109.92,109.92,0,0,0,18.63,23.86c18.19,17.36-12.38,28.56-29.57,11.89,3.27,21.17-22.08,29-28.89-21.71-2.61-19.43,8.19-34.91,18.06-46C420.47,856.38,431.81,849.75,440.7,849.62Z"/><path class="cls-3" d="M889.9,167.61c7.52,34.65-16.51,44.93-41.71,44.93s-45.64-18.79-45.64-42,20.43-42,45.64-42S885,145,889.9,167.61Z"/><path class="cls-2" d="M875.44,132.56c0,13.8-8.09,25-18.06,25s-18.07-11.18-18.07-25,8.09-25,18.07-25S875.44,118.77,875.44,132.56Z"/><path class="cls-2" d="M820.79,191.71c-22.35-18.63-11.17-80.31,16.77-83.93s19.94,46.32,0,48.53c-16.77,1.87-13-22.35-13-22.35"/><path class="cls-2" d="M814.82,126.69c-28.34,7.67-14.67,86.67,24.16,85.85s26.84-72.76-9.26-49.67C829.72,162.87,828.55,123,814.82,126.69Z"/><path class="cls-2" d="M890.94,144.48c-4.06,11.83-14.29,19-22.84,16.11s-12.21-14.91-8.15-26.74,14.28-19,22.84-16.11S895,132.65,890.94,144.48Z"/><path class="cls-2" d="M903,151.7c-3.42,10-12,16.06-19.26,13.59s-10.29-12.57-6.87-22.54,12-16.06,19.26-13.59S906.39,141.73,903,151.7Z"/><polygon class="cls-4" points="868.74 243.84 792.17 218.36 803.38 184.05 879.95 209.53 868.74 243.84"/><rect class="cls-4" x="374.58" y="838.76" width="72.48" height="36.09" transform="translate(-408.93 376.29) rotate(-34.01)"/><path class="cls-5" d="M372.88,880.11c-4.17-5.71-101.2-141.1-28.27-250.45,75.63-113.4,280.51-67.37,393.21,7.79l-46.43,49.2C564.92,672,581.84,657.58,526.85,651.13c-25.43-3-87-6.31-109.3,27.17-38.34,57.49,25.58,149.33,26.23,150.24Z"/><rect class="cls-5" x="544.44" y="394.4" width="441.48" height="53" transform="translate(115.91 1004.95) rotate(-70.79)"/><path class="cls-1" d="M484.86,1412.62s-9.94,37.2,44.34,92.6c49.14,50.17,65.2,10.61,62.54-9.26-3.92-29.4-22.7-62.62-21.59-70,0,0,9-12.81,6.87-21.35-17.67-70.68-64-78.8-88-66.38C461.18,1352.63,461.28,1384.33,484.86,1412.62Z"/><path class="cls-5" d="M487.85,938.26Z"/><path class="cls-5" d="M889.34,1059.77c-1.91-21.54-11.45-36.76-24.59-53.2-37.74-47.22-87.17-86.89-133.9-125.13a53.47,53.47,0,0,0-39.13-17H541.94a53.62,53.62,0,0,0-52.8,44.44c-3.29,10.13-2.84,21.45.53,32.45.2.71.42,1.42.67,2.11.61,1.8,1.28,3.58,2.05,5.35-2.65-6.1-4-9.24-4.54-10.5.6,1.43,2,4.8,2.9,7.26,2.51,6.86,4.68,13.85,6.74,20.86,3.21,11,5.87,22.06,8.29,33.22,1.66,7.67,3.08,15.39,4.42,23.12.75,4.27,1.4,8.56,2.05,12.84.12.83.23,1.5.32,2.1.1.84.24,2.06.46,3.85,12.57,102.79.09,206.48-26.8,306-15.81,58.52,74.74,83.32,90.51,25,29-107.27,42.87-220.13,30.15-331-2.49-21.66-5.7-43.34-10.19-64.71H699.21c30.71,26.12,60.68,53.34,87.84,82.87,2.46,2.67,4.83,5.42,7.19,8.19l.45.52a74.22,74.22,0,0,1,.29,10.17c-.05.5-.08.85-.12,1.25-.15.83-.34,2-.61,3.7-.79,5-1.73,10-2.66,14.94-8.05,43.06-19.2,85.85-32,127.75-17.69,58.06,72.92,82.68,90.5,25a1236.69,1236.69,0,0,0,32.92-132.87C886.57,1099.46,891,1079,889.34,1059.77Z"/><path class="cls-5" d="M614.4,556.82c-146.66,0-128.47,74.2-128.47,74.2V920.23c62.86,32.15,211.08,37.15,255.73-22.35V609S761.05,556.82,614.4,556.82Z"/><polygon class="cls-4" points="551.46 572.27 645.85 728.63 682.51 572.27 551.46 572.27"/><path class="cls-6" d="M685.43,589.55l-.75-.28c-44-16.15-91.77-16.15-129.75,0l-.61.26,25.95,42.73,42.2-28.82,52.94,28.82Z"/><polygon class="cls-7" points="653.3 696.64 645.8 728.64 626.48 696.63 616.93 572.28 616.93 572.28 653.3 696.64"/><path class="cls-7" d="M624.89,616.76h.22c6.64,0,11.82-3.58,12.73-8.79l3.61-20.7c1.37-7.85-7.3-15.73-17.3-15.73H609c-10,0-15.73,7.88-11.43,15.73L608.88,608C611.73,613.18,618.25,616.76,624.89,616.76Z"/><path class="cls-4" d="M682.51,572.27l-.75-.27c-44-16.16-91.77-16.15-129.75,0l-.6.25,26,42.74,42.79-25.64L672.49,615Z"/><polygon class="cls-8" points="645.8 728.64 680.69 562.49 731.12 579.47 708.38 610.7 690.79 616.67 702.5 637.3 645.8 728.64"/><polygon class="cls-8" points="645.8 728.64 548.96 562.49 504.44 577.21 539.25 610.7 559.06 616.68 555.04 637.3 645.8 728.64"/><path class="cls-9" d="M488.15,491.64s-89.31-150.22.12-191.07c21.06-80.88,131.08-60.47,158-52.87s42.82-6.2,42.82-6.2c9,8.14,9.87,25.21,9.87,25.21l20.79-27.18c27.55,17.24,42.87,61.66,4.22,124.9Z"/><rect class="cls-3" x="584.75" y="492.92" width="57.75" height="94.88" rx="25.67"/><path class="cls-2" d="M632,294.68l-73,5.91c-47.36,3.83-82.51,47.1-78.5,96.65l1.73,21.34a.36.36,0,0,1-.38.4,32.77,32.77,0,0,0-4.54,0l-.85.07c-18.65,1.51-32.49,18.55-30.91,38.06l.06.71c1.58,19.49,18,34.07,36.6,32.56l.87-.07a31.24,31.24,0,0,0,4.58-.74.37.37,0,0,1,.44.32c5.63,47.55,46.21,82.62,92.24,78.89l73.34-5.94c47.36-3.83,82.5-47.1,78.49-96.65L725,377.45C721,327.9,679.33,290.84,632,294.68Z"/><path class="cls-9" d="M512.63,444.8c-3.41-42.21-16.53-94.62,18.35-126.33,17.66-16.07,38.46-17.68,60.56-19.47,18-1.45,36-3.24,54-4.37,19.45-1.22,17-32.23-2.54-31.31-19.74.94-39.39,3.19-59.09,4.79-28.11,2.28-53.61,8.32-75,29-23.82,23-33.85,55.69-31.14,89.16q2.48,30.48,4.94,60.94c1.63,20.19,31.56,17.77,29.92-2.42Z"/><path class="cls-10" d="M595,432.3c.51,6.23-2.74,11.57-7.25,11.94s-8.58-4.39-9.08-10.62S581.45,422,586,421.68,594.54,426.07,595,432.3Z"/><path class="cls-10" d="M686.84,424.86c.51,6.23-2.74,11.58-7.25,11.95s-8.58-4.39-9.08-10.62,2.74-11.58,7.25-11.95S686.34,418.63,686.84,424.86Z"/><path class="cls-9" d="M695.06,383.85c-11.93-13.34-30.59-12.6-40.2,2.83-2.17,3.5,3.34,6.7,5.51,3.22,7.5-12.06,21-11.75,30.19-1.55,2.74,3.07,7.23-1.45,4.5-4.5Z"/><path class="cls-9" d="M568.66,398c7.38-11.64,20.68-13.51,30.08-2.85,2.72,3.08,7.22-1.44,4.51-4.51-12.14-13.77-30.6-10.82-40.1,4.15-2.2,3.47,3.32,6.67,5.51,3.21Z"/><path class="cls-9" d="M716.22,269.19s5.22,47.41-89.38,55.07-129.68,5.37-122.66,92.05c0,0-29.08-125.7,52.56-144.25S671.25,291.5,716.22,269.19Z"/><path class="cls-4" d="M594.29,487.49a43,43,0,1,0,85.81-6.95Z"/><path class="cls-11" d="M632,56.39V11.7c0-15.59-24.23-15.61-24.23,0V56.39C607.76,72,632,72,632,56.39Z"/><path class="cls-11" d="M632,168.51V156c0-6.34-5.57-12.41-12.11-12.12s-12.12,5.33-12.12,12.12v12.53c0,6.33,5.58,12.4,12.12,12.11S632,175.3,632,168.51Z"/><path class="cls-11" d="M1011.8,230.37c15.59,0,15.61-24.22,0-24.22s-15.61,24.22,0,24.22Z"/><path class="cls-11" d="M943.94,298.23c15.59,0,15.62-24.22,0-24.22s-15.61,24.22,0,24.22Z"/><path class="cls-11" d="M913.64,333.55l38.87-38.87c11-11-6.09-28.17-17.13-17.13Q915.94,297,896.51,316.42c-11,11,6.09,28.17,17.13,17.13Z"/><path class="cls-11" d="M219.39,228.91l42.23,42.23c11,11,28.16-6.09,17.12-17.13l-42.23-42.23c-11-11-28.16,6.09-17.12,17.13Z"/><path class="cls-11" d="M1149.87,631.37h35.4c15.59,0,15.61-24.23,0-24.23h-35.4c-15.58,0-15.61,24.23,0,24.23Z"/><path class="cls-11" d="M1149.87,631.37c15.59,0,15.62-24.23,0-24.23s-15.61,24.23,0,24.23Z"/><path class="cls-11" d="M1036.62,631.37c15.59,0,15.61-24.23,0-24.23s-15.61,24.23,0,24.23Z"/><path class="cls-11" d="M964.37,631.37h72.25c15.59,0,15.61-24.23,0-24.23H964.37c-15.58,0-15.61,24.23,0,24.23Z"/><path class="cls-11" d="M832.86,843.7l63.65,63.65c11,11,28.17-6.09,17.13-17.13L850,826.57c-11-11-28.17,6.09-17.13,17.13Z"/><path class="cls-11" d="M75,607.14H11.7c-15.59,0-15.61,24.23,0,24.23H75c15.58,0,15.61-24.23,0-24.23Z"/><path class="cls-11" d="M272.69,949.31l-53.3,53.31c-11,11,6.08,28.17,17.12,17.12l53.31-53.3c11-11-6.09-28.17-17.13-17.13Z"/><path class="cls-11" d="M186.82,607.14h-14.9c-6.33,0-12.4,5.57-12.11,12.12s5.32,12.11,12.11,12.11h14.9c6.33,0,12.4-5.57,12.11-12.11s-5.32-12.12-12.11-12.12Z"/></g></g></svg>