<svg xmlns="http://www.w3.org/2000/svg" viewBox="0 0 553.26 1081.61"><defs><style>.cls-1{fill:#252533;}.cls-2{fill:#ffce00;}.cls-3{fill:#ffe05f;}.cls-4{fill:#a51300;}.cls-5{fill:#d62300;}.cls-6{fill:#9e8f63;}.cls-7{fill:#bcac77;}.cls-8{fill:none;stroke:#ffe948;stroke-miterlimit:10;stroke-width:1.96px;}.cls-9{fill:#b6ccb6;}.cls-10{fill:#6b2a18;}.cls-11{fill:#131516;}.cls-12{fill:#ffb37b;}.cls-13{fill:#fff;}.cls-14{fill:#afa2a0;}.cls-15{fill:#070404;}.cls-16{fill:#323244;}.cls-17{fill:#774320;}.cls-18{fill:#ff9e5c;}.cls-19{fill:#e56533;}</style></defs><title>ROVER</title><g id="Capa_2" data-name="Capa 2"><g id="Capa_1-2" data-name="Capa 1"><ellipse class="cls-1" cx="293.62" cy="356.95" rx="84.75" ry="37.74"/><path class="cls-2" d="M201.82,682.86,217,697.93a2.84,2.84,0,0,0,4.85-2c-.16-15.11-2.33-51.78-18.92-71.15L74.29,619C56,636.77,50.58,673.1,49.07,688.14a2.84,2.84,0,0,0,4.64,2.46l16.48-13.66c-15.67,67.6,42.35,156,58.91,156.77S211.37,751.58,201.82,682.86Z"/><path class="cls-3" d="M163.79,657.65c-2.44,54.31-31.15,97.14-31.15,97.14s-24.75-45.23-22.31-99.54,16.38-97.8,31.15-97.14S166.23,603.34,163.79,657.65Z"/><path class="cls-4" d="M243.74,611.93l19.41-17.74,1.19-26.51,4.71-104.78L271,420.17a71.27,71.27,0,0,0-68-74.39l-1.44-.06a71.25,71.25,0,0,0-74.39,68l-1.92,42.73-4.71,104.77-1.09,24.28,19.88,21.74Z"/><path class="cls-5" d="M231.82,611.39l19.41-17.74,1.19-26.51,4.71-104.77,1.92-42.73a71.27,71.27,0,0,0-68-74.39l-1.44-.07a71.26,71.26,0,0,0-74.38,68l-1.92,42.73L108.6,560.68,107.51,585l19.87,21.75Z"/><path class="cls-4" d="M148.79,607.66l19.4-17.74,1.2-26.51,4.7-104.77L176,415.91a71.25,71.25,0,0,0-68-74.39l-1.44-.07a71.27,71.27,0,0,0-74.39,68l-1.92,42.73L25.57,557l-1.09,24.27L44.35,603Z"/><path class="cls-5" d="M136.86,607.13l19.41-17.75,1.19-26.51,4.71-104.77,1.92-42.73A71.26,71.26,0,0,0,96.1,341l-1.44-.06a71.26,71.26,0,0,0-74.39,68l-1.92,42.73L13.64,556.41l-1.09,24.28,19.88,21.74Z"/><path class="cls-6" d="M271,516.49,15.53,505c-9-.41-16-9.1-15.51-19.42l0-.38c.46-10.32,8.16-18.36,17.19-18l255.45,11.48c9,.41,16,9.1,15.51,19.42l0,.38C287.71,508.86,280,516.9,271,516.49Z"/><path class="cls-7" d="M271,524.23,15.53,512.76c-9-.41-16-9.11-15.51-19.43L0,493C.5,482.63,8.2,474.59,17.23,475l255.45,11.48c9,.4,16,9.1,15.51,19.42l0,.38C287.71,516.6,280,524.64,271,524.23Z"/><rect class="cls-8" x="35.29" y="476.81" width="43.47" height="43.47" rx="10" transform="translate(-443.58 533.14) rotate(-87.43)"/><path class="cls-9" d="M228.3,625.89,46.51,617.72a14.49,14.49,0,0,1-13.83-15.13v-.15l210.76,9.47v.15A14.49,14.49,0,0,1,228.3,625.89Z"/><path class="cls-10" d="M532.35,1079.58l3.78-4.59a43.14,43.14,0,0,0-5.85-60.73L502,990.94a15.35,15.35,0,0,1-2.08-21.62l.2-.24A15.38,15.38,0,0,0,498,947.45l-57.71-47.57A15.36,15.36,0,0,0,418.71,902l-41.19,50,52.57,43.34,5.15-6.24,8,17.08Z"/><path class="cls-10" d="M146.44,1081.61l5.84-1.12A43.14,43.14,0,0,0,186.57,1030l-6.87-36a15.37,15.37,0,0,1,12.21-18l.3-.06a15.35,15.35,0,0,0,12.21-18l-14-73.46a15.35,15.35,0,0,0-18-12.21L108.83,884.5l12.77,66.93,8-1.52-4.76,18.25Z"/><path class="cls-1" d="M525.44,725.29c-28.59-44.16-65.78-65.77-99.33-76a54.83,54.83,0,0,0-48.68-29.63H230.54a54.87,54.87,0,0,0-54.86,54.87v5.59a54.86,54.86,0,0,0,39.43,52.63c18.65,12,47.14,37.08,43.41,77-4.75,50.83-70.61,65.73-73.13,66.27l18.25,89.61c50-10.19,137.08-52.7,145.93-147.38,3-31.9-2.85-59.63-13.67-83.24h41.53c1.28,0,2.56,0,3.82-.13a48.52,48.52,0,0,1,18.54,1.88c16.48,5.4,34.74,16.4,48.9,38.27,33.6,51.9-15.71,114.3-17.67,116.73l70.58,58.14C505.47,945.16,595.56,833.57,525.44,725.29Z"/><path class="cls-11" d="M337.09,735h41.53c1.28,0,2.56,0,3.82-.13A48.45,48.45,0,0,1,401,736.72c16.49,5.4,34.75,16.4,48.91,38.27,33.6,51.9-15.71,114.3-17.67,116.73l70.58,58.14c3.87-4.7,94-116.29,23.84-224.57-28.59-44.16-65.78-65.77-99.33-76a54.83,54.83,0,0,0-48.68-29.63s-211.81-40.56-146.89,0S337.09,735,337.09,735Z"/><path class="cls-11" d="M375.78,619.35H228.89a54.84,54.84,0,0,0-54.29,47.34l1.3,18.75s94,49.11,250.52-17.28l-1.31-19-.65-.21A54.83,54.83,0,0,0,375.78,619.35Z"/><path class="cls-1" d="M352.62,409.94c1.5.53,3,1.11,4.47,1.68,7,2.71-7.71-3.4,1.26.51,3.27,1.42,6.49,3,9.7,4.48a366.91,366.91,0,0,1,49.36,28.88A269.25,269.25,0,0,1,442,464.92c5.44,4.73,10.55,9.81,15.64,14.89l5.12,5.36q8.75,14.46,9.47-8.2c-19.65,15.11-46.76,25.59-69.74,34.21-40.09,15-22.73,79.87,17.83,64.65a568.14,568.14,0,0,0,58.12-25.62c14.71-7.49,31.82-15.35,42.42-28.36,30.59-37.56,2.26-72.51-26.2-99.56-34.88-33.17-78.65-61-124.23-77-40.9-14.38-58.33,50.41-17.83,64.65Z"/><path class="cls-6" d="M404.64,506.72l-7.36-40.43c11.31-19.16,23-54.82,3.2-107.32a.36.36,0,0,0,0-.11c-1.77-4.95,3.83-9.41,8.55-7.11l14.62,7.13a27.69,27.69,0,0,1,15,18.87C456.66,461,407.06,504.66,404.64,506.72Z"/><path class="cls-7" d="M400.34,510.53,397.28,466a99.88,99.88,0,0,0,11.45-29.68l30.6,6.53C430.51,484.24,408.21,503.89,400.34,510.53Z"/><path class="cls-1" d="M423.6,655c-156.54,66.39-250.52,17.28-250.52,17.28L156,424.23a79.32,79.32,0,0,1,73.67-84.58l92.28-6.36A79.3,79.3,0,0,1,406.49,407Z"/><path class="cls-11" d="M414.59,524.13c-1.27-.61-2.57-1.26-3.88-2,0,0-14.23-20.16-19-9.44-4.13,9.29-1.5,16.65,3.53,22.31a33.41,33.41,0,0,0-6.53,5.55c-12.85,2.63-25.23,4.69-26.2,14-1.08,10.32,7.74,13.58,17.49,14.12.09.88.23,1.75.37,2.62-1.18.1-2.38.19-3.61.25-22.69,1-8.49,26.81,13.11,25.64-14.42,12.18-2.73,31.83,30.06,4.47Z"/><path class="cls-12" d="M427.47,511.57c-2.75-3.76-9.7-5.64-16.76-9.59,0,0-14.23-20.16-19-9.44-5,11.18-.21,19.6,6.84,25.58-15.56,4.33-34.82,4.58-36,16.23-2.33,22.16,41.1,11.77,41.1,11.77a99.29,99.29,0,0,1-26.85,5.22c-22.69,1-8.5,26.81,13.11,25.63-14.79,12.5-2.14,32.86,32.57,2.34,13.3-11.69,15.11-28.65,14.94-42C437.26,528.17,433.46,516.92,427.47,511.57Z"/><path class="cls-11" d="M266.74,580.66c-.85-8-10.3-10.66-21.2-12.93a25.49,25.49,0,0,0-10-8.42c4-5.39,5.67-12.17,2-20.46-4.77-10.72-19,9.44-19,9.44-3.35,1.87-6.65,3.28-9.51,4.64a267.67,267.67,0,0,1-44.86-15.18l5.1,74c12.16,3.61,23.33,6.28,32.12,8a38.72,38.72,0,0,0,5.43,5.88c34.7,30.52,47.35,10.15,32.57-2.34,21.6,1.18,35.79-24.59,13.1-25.63-1.62-.08-3.2-.21-4.74-.36.31-.82.58-1.65.84-2.48C258.58,594.38,267.84,591.21,266.74,580.66Z"/><path class="cls-1" d="M174.05,362.88c-47.47,33.12-90.23,79-114.64,131.65C29.68,558.72,159,596,200.67,602.72c42.28,6.87,60.42-57.73,17.82-64.65a261.45,261.45,0,0,1-66.37-20.53A258,258,0,0,1,124,502.39c.83.51-10.2-7.7-5.94-4.09-5.75-4.87,2,3.26,2.35,5.6v17.82c5.07-24.59,36.15-54.51,54.62-72.7,8.47-8.34,17.48-16.14,26.69-23.63,6.1-5-3.56,2.54,3.39-2.62.92-.68,1.85-1.35,2.79-2,35.18-24.54,1.72-82.7-33.84-57.89Z"/><path class="cls-12" d="M194.29,539.62C197,535.86,204,534,211.05,530c0,0,14.23-20.16,19-9.44,5,11.18.21,19.61-6.84,25.58,15.56,4.33,34.82,4.59,36,16.23,2.33,22.17-41.1,11.78-41.1,11.78A99.06,99.06,0,0,0,245,579.39c22.69,1.05,8.5,26.82-13.11,25.64,14.79,12.49,2.14,32.85-32.57,2.34-13.3-11.7-15.11-28.66-14.94-42C184.5,556.22,188.3,545,194.29,539.62Z"/><path class="cls-6" d="M165.3,517l-7.37-40.43c11.31-19.16,23-54.81,3.21-107.32a7.36,7.36,0,0,1,4.1-9.36l15.23-6.34a7.45,7.45,0,0,1,9.81,4.3C229.31,460.71,168,514.69,165.3,517Z"/><path class="cls-7" d="M161,520.8l-3.07-44.5a99.94,99.94,0,0,0,11.46-29.69l30.6,6.53C191.16,494.51,168.87,514.15,161,520.8Z"/><polygon class="cls-13" points="238.23 351.24 300.93 506.4 346.74 345.29 238.23 351.24"/><path class="cls-14" d="M347.44,362.77l-.6-.24a123.94,123.94,0,0,0-107.42,5.91l-.53.29,17.26,42.4,37.79-31.31,41,27Z"/><polygon class="cls-15" points="310.26 473.44 300.88 506.42 288.05 474.65 292.44 348.28 292.44 348.28 310.26 473.44"/><path class="cls-15" d="M294.62,393.27h.19a12.42,12.42,0,0,0,11.41-9.54l5-21.27a12.42,12.42,0,0,0-12.77-15.26l-12.54.69a12.42,12.42,0,0,0-11,16.56L282.24,385A12.43,12.43,0,0,0,294.62,393.27Z"/><path class="cls-13" d="M346.74,345.29l-.6-.25A124,124,0,0,0,238.71,351l-.52.29,17.26,42.4,38-28.08,40.81,23.76Z"/><polygon class="cls-16" points="300.88 506.42 346.19 335.39 386.27 350.42 364.35 383.3 349.2 390.19 356.86 410.69 300.88 506.42"/><polygon class="cls-16" points="300.88 506.42 237.13 341.38 198.81 358.41 224.32 390.98 240.13 396.18 234.77 417.39 300.88 506.42"/><path class="cls-16" d="M298.13,514.12,307,678.51c.23,4.13,6.67,4.15,6.45,0l-8.91-164.39c-.22-4.12-6.67-4.15-6.44,0Z"/><path class="cls-17" d="M164.37,252.12S75.07,101.9,164.49,61C185.56-19.84,295.58.58,322.46,8.17S365.28,2,365.28,2c9,8.13,9.87,25.2,9.87,25.2L395.93,0c27.56,17.25,42.88,61.66,4.23,124.91Z"/><rect class="cls-18" x="260.98" y="267.93" width="57.75" height="94.88" rx="25.67"/><path class="cls-12" d="M308.19,55.15l-73,5.91c-47.37,3.83-82.51,47.11-78.5,96.65l1.73,21.34a.37.37,0,0,1-.38.41,31.27,31.27,0,0,0-4.54,0l-.86.07C134,181,120.2,198.08,121.78,217.59l.06.71c1.57,19.5,18,34.07,36.59,32.57l.88-.08a30,30,0,0,0,4.58-.74.35.35,0,0,1,.43.32c5.64,47.56,46.22,82.62,92.25,78.89l73.33-5.93c47.36-3.84,82.51-47.11,78.5-96.66l-7.19-88.75C397.2,88.37,355.55,51.32,308.19,55.15Z"/><path class="cls-17" d="M188.86,205.27c-3.42-42.21-16.53-94.61,18.34-126.33,17.67-16.06,38.47-17.67,60.57-19.46,18-1.46,36-3.25,54-4.38,19.45-1.22,17-32.23-2.53-31.3-19.74.93-39.39,3.19-59.09,4.78-28.12,2.28-53.61,8.32-75,29-23.82,23-33.85,55.7-31.14,89.16q2.48,30.48,4.94,60.95c1.63,20.19,31.56,17.76,29.92-2.43Z"/><path class="cls-11" d="M271.27,192.77c.5,6.23-2.74,11.58-7.25,11.94s-8.58-4.39-9.08-10.62,2.74-11.58,7.25-11.94S270.77,186.54,271.27,192.77Z"/><path class="cls-11" d="M363.07,185.34c.5,6.23-2.74,11.58-7.25,11.94s-8.58-4.39-9.09-10.62,2.75-11.58,7.26-11.94S362.57,179.11,363.07,185.34Z"/><path class="cls-17" d="M371.29,144.32c-11.93-13.33-30.59-12.6-40.2,2.84-2.17,3.49,3.34,6.69,5.5,3.22,7.51-12.07,21.06-11.76,30.19-1.55,2.74,3.06,7.24-1.46,4.51-4.51Z"/><path class="cls-17" d="M244.89,158.46c7.38-11.65,20.68-13.52,30.08-2.86,2.72,3.09,7.21-1.44,4.51-4.5-12.14-13.78-30.6-10.83-40.1,4.14-2.2,3.47,3.31,6.68,5.51,3.22Z"/><path class="cls-17" d="M392.45,29.66s5.21,47.41-89.38,55.07S173.39,90.11,180.4,176.78c0,0-29.07-125.7,52.57-144.25S347.48,52,392.45,29.66Z"/><path class="cls-19" d="M282.59,258.15c20.17,16.66,47.72,15.25,65.6-4.06,2.44-2.63-1.5-6.59-3.95-4-15.67,16.92-39.79,18.86-57.7,4.06-2.75-2.27-6.72,1.66-4,3.95Z"/></g></g></svg>