<svg xmlns="http://www.w3.org/2000/svg" viewBox="0 0 771.68 1366.94"><defs><style>.cls-1{fill:#a51300;}.cls-2{fill:#ffce00;}.cls-3{fill:#ffe05f;}.cls-4{fill:#d62300;}.cls-5{fill:#9e8f63;}.cls-6{fill:#bcac77;}.cls-14,.cls-7{fill:none;stroke-miterlimit:10;}.cls-7{stroke:#ffe948;stroke-width:1.96px;}.cls-8{fill:#b6ccb6;}.cls-9{fill:#666;}.cls-10{fill:#6b2a18;}.cls-11{fill:#ffb37b;}.cls-12{fill:#fff;}.cls-13{fill:#252533;}.cls-14{stroke:#252533;stroke-width:18.45px;}.cls-15{fill:#afa2a0;}.cls-16{fill:#070404;}.cls-17{fill:#323244;}.cls-18{fill:#774320;}.cls-19{fill:#ff9e5c;}.cls-20{fill:#131516;}.cls-21{fill:#29abe2;opacity:0.48;}.cls-22{fill:#e6e6e6;}</style></defs><title>SPACEMAN</title><g id="Capa_2" data-name="Capa 2"><g id="Capa_1-2" data-name="Capa 1"><path class="cls-1" d="M219.21,793.16,247.81,767,249.56,728,256.5,573.6l2.83-63A105,105,0,0,0,159.15,401L157,401A105,105,0,0,0,47.43,501.12l-2.83,63L37.67,718.45l-1.61,35.76,29.29,32Z"/><path class="cls-2" d="M297.36,904l22.38,22.22a4.18,4.18,0,0,0,7.13-3c-.23-22.26-3.43-76.29-27.86-104.83l-189.56-8.51c-26.9,26.22-34.93,79.75-37.15,101.9a4.19,4.19,0,0,0,6.84,3.63l24.28-20.12c-23.09,99.59,62.39,229.88,86.79,231S311.42,1005.21,297.36,904Z"/><path class="cls-3" d="M241.33,866.82c-3.6,80-45.9,143.12-45.9,143.12S159,943.3,162.55,863.28s24.14-144.09,45.9-143.12S244.92,786.8,241.33,866.82Z"/><path class="cls-1" d="M359.12,799.45l28.59-26.14,1.76-39.06,6.93-154.37,2.83-63a105,105,0,0,0-100.18-109.6l-2.11-.1A105,105,0,0,0,187.33,507.41l-2.83,62.95-6.93,154.37L176,760.5l29.29,32Z"/><path class="cls-4" d="M341.55,798.66l28.6-26.14,1.75-39.06,6.94-154.37,2.82-63a105,105,0,0,0-100.17-109.6l-2.12-.1a105,105,0,0,0-109.6,100.18l-2.83,63L160,723.94l-1.6,35.77,29.28,32Z"/><path class="cls-4" d="M201.65,792.37l28.59-26.13L232,727.18l6.93-154.37,2.83-63a105,105,0,0,0-100.18-109.6l-2.11-.09A105,105,0,0,0,29.86,500.33l-2.82,63L20.1,717.66l-1.61,35.76,29.29,32Z"/><path class="cls-5" d="M399.26,658.84,22.88,641.94C9.58,641.34-.65,628.53,0,613.32l0-.56c.68-15.2,12-27,25.32-26.45l376.38,16.91c13.3.6,23.53,13.41,22.85,28.62l0,.55C423.9,647.6,412.56,659.44,399.26,658.84Z"/><path class="cls-6" d="M399.26,670.24,22.88,653.34C9.58,652.74-.65,639.93,0,624.72l0-.56c.68-15.2,12-27,25.32-26.45l376.38,16.91c13.3.6,23.53,13.41,22.85,28.61l0,.56C423.9,659,412.56,670.84,399.26,670.24Z"/><path class="cls-7" d="M99.86,665.17,65.3,663.61a14.71,14.71,0,0,1-14-15.37l1.55-34.56a14.74,14.74,0,0,1,15.38-14l34.55,1.55a14.74,14.74,0,0,1,14.06,15.38l-1.56,34.55A14.73,14.73,0,0,1,99.86,665.17Z"/><path class="cls-8" d="M336.37,820,68.52,808a21.36,21.36,0,0,1-20.38-22.3v-.21l310.52,13.95v.21A21.35,21.35,0,0,1,336.37,820Z"/><path class="cls-9" d="M481.58,361.14s-1.24-10.66-5-14.14c0,0-23.61,29.56-32.42,34C444.14,381,470.57,370,481.58,361.14Z"/><path class="cls-9" d="M215.13,4.4s4,1.26,6.4,10.54c0,0-26.4,9.2-28.51,13.65C193,28.59,206.32,8.81,215.13,4.4Z"/><path class="cls-10" d="M513,1332.43l1.45-5.76a43.15,43.15,0,0,0-31.31-52.37l-35.55-9a15.37,15.37,0,0,1-11.14-18.65l.07-.3a15.36,15.36,0,0,0-11.14-18.64l-72.53-18.26a15.36,15.36,0,0,0-18.64,11.14L322.55,1267a17,17,0,0,0,12.32,20.63l49.61,12.49,2-7.85,14.54,12Z"/><path class="cls-11" d="M133,686.94c5-1.14,12.19,2.34,21,4.17,0,0,26.53-6.5,22.73,5.92-4,12.94-14.06,16.52-24.3,16.39,9.85,14.91,25.75,29.12,18.31,39.73-14.16,20.2-42.87-20-42.87-20A109.54,109.54,0,0,0,146.48,757c18.18,17.35-12.39,28.56-29.57,11.88,3.27,21.17-22.09,29-28.9-21.7-2.61-19.44,8.2-34.92,18.07-46C112.79,693.69,124.13,687.06,133,686.94Z"/><rect class="cls-12" x="66.9" y="676.07" width="72.48" height="36.09" transform="translate(-370.56 176.39) rotate(-34.01)"/><path class="cls-13" d="M65.2,717.43C61,711.72-36,576.32,36.93,467c75.63-113.4,280.51-67.37,393.21,7.8L383.72,524c-126.47-14.7-109.56-29.07-164.55-35.52-25.42-3-87-6.31-109.3,27.17C71.54,573.1,135.45,665,136.11,665.86Z"/><path class="cls-14" d="M356.66,391.61c7.42,38,35.77,157.07,144.74,244.79,59.15,47.62,119.54,67.86,157.44,77.07"/><path class="cls-10" d="M177.19,1249.94s-9.94,37.2,44.33,92.6c49.14,50.16,65.2,10.61,62.55-9.26-3.93-29.4-22.71-62.62-21.6-70,0,0,9-12.81,6.87-21.36-17.67-70.68-64-78.79-88-66.37C153.5,1190,153.61,1221.64,177.19,1249.94Z"/><path class="cls-13" d="M180.17,775.57Z"/><path class="cls-13" d="M428.73,1226.56s-57.26,66.06-83.68-13.22c0,0,41.84-132.12,17.62-403L289,814.11c4.49,21.38,7.71,43.06,10.19,64.72,12.72,110.81-1.17,223.68-30.15,330.95-15.77,58.37-106.32,33.57-90.51-25,26.89-99.52,39.37-203.2,26.8-306-.22-1.8-.36-3-.46-3.86-.09-.59-.19-1.26-.32-2.09-.65-4.29-1.3-8.57-2-12.85-1.35-7.73-2.76-15.44-4.43-23.11-2.42-11.16-5.08-22.27-8.29-33.23-2.06-7-4.22-14-6.74-20.86-.89-2.45-2.29-5.82-2.9-7.26.55,1.27,1.89,4.41,4.54,10.51-.76-1.77-1.43-3.56-2.05-5.36-.25-.69-.46-1.39-.67-2.11-3.37-11-3.81-22.32-.52-32.44a53.61,53.61,0,0,1,52.79-44.44H384a53.42,53.42,0,0,1,39.13,17S486,783.94,428.73,1226.56Z"/><path class="cls-13" d="M306.72,394.14c-146.66,0-128.46,74.19-128.46,74.19V757.54c62.86,32.15,211.07,37.15,255.73-22.35V446.29S453.38,394.14,306.72,394.14Z"/><polygon class="cls-12" points="243.79 409.59 338.18 565.94 374.84 409.59 243.79 409.59"/><path class="cls-15" d="M377.75,426.87l-.75-.28c-44-16.16-91.77-16.15-129.75,0l-.6.26,26,42.73,42.19-28.82,52.94,28.82Z"/><polygon class="cls-16" points="345.63 533.95 338.12 565.95 318.8 533.95 309.26 409.6 309.26 409.6 345.63 533.95"/><path class="cls-16" d="M317.21,454.07h.23c6.64,0,11.82-3.57,12.72-8.79l3.61-20.69c1.37-7.86-7.29-15.74-17.3-15.74H301.32c-10,0-15.74,7.88-11.44,15.74l11.33,20.69C304.06,450.5,310.57,454.07,317.21,454.07Z"/><path class="cls-12" d="M374.84,409.59l-.75-.28c-44-16.15-91.77-16.15-129.75,0l-.61.26,26,42.73,42.79-25.63,52.35,25.63Z"/><polygon class="cls-17" points="338.12 565.95 373.01 399.8 423.45 416.79 400.7 448.01 383.12 453.99 394.82 474.61 338.12 565.95"/><polygon class="cls-17" points="338.12 565.96 241.29 399.81 196.76 414.53 231.57 448.02 251.39 454 247.37 474.62 338.12 565.96"/><path class="cls-18" d="M180.47,329s-89.3-150.22.12-191.07C201.65,57,311.67,77.42,338.56,85s42.81-6.2,42.81-6.2c9,8.13,9.88,25.2,9.88,25.2L412,76.84c27.55,17.25,42.88,61.66,4.22,124.91Z"/><rect class="cls-19" x="277.07" y="330.23" width="57.75" height="94.88" rx="25.67"/><path class="cls-11" d="M324.29,132l-73,5.91c-47.36,3.84-82.5,47.11-78.49,96.66l1.73,21.33a.38.38,0,0,1-.39.41,29.93,29.93,0,0,0-4.54,0l-.85.07c-18.65,1.51-32.48,18.54-30.91,38.05l.06.71c1.58,19.5,18,34.08,36.6,32.57l.88-.07a31.25,31.25,0,0,0,4.58-.75.36.36,0,0,1,.43.33c5.64,47.55,46.22,82.61,92.25,78.89L346,400.17c47.36-3.83,82.5-47.11,78.49-96.65l-7.18-88.76C413.3,165.22,371.65,128.16,324.29,132Z"/><path class="cls-18" d="M205,282.12c-3.42-42.22-16.54-94.62,18.34-126.34,17.66-16.06,38.46-17.67,60.57-19.46,18-1.46,36-3.24,54-4.37,19.45-1.22,17-32.24-2.53-31.31-19.74.93-39.4,3.19-59.09,4.78-28.12,2.28-53.61,8.33-75,29-23.82,23-33.84,55.7-31.13,89.17q2.46,30.47,4.93,60.94c1.64,20.19,31.56,17.76,29.93-2.42Z"/><path class="cls-20" d="M287.37,269.61c.5,6.23-2.75,11.58-7.26,11.94s-8.57-4.39-9.08-10.62,2.75-11.57,7.26-11.94S286.86,263.38,287.37,269.61Z"/><path class="cls-20" d="M379.17,262.18c.5,6.23-2.75,11.58-7.26,11.94s-8.57-4.39-9.08-10.62,2.74-11.58,7.26-11.94S378.66,256,379.17,262.18Z"/><path class="cls-18" d="M387.39,221.16c-11.94-13.33-30.6-12.6-40.2,2.84-2.18,3.49,3.34,6.7,5.5,3.22,7.51-12.07,21.05-11.76,30.19-1.55,2.74,3.06,7.24-1.46,4.51-4.51Z"/><path class="cls-18" d="M261,235.3c7.39-11.65,20.69-13.51,30.09-2.85,2.71,3.08,7.21-1.44,4.5-4.51-12.14-13.77-30.6-10.83-40.09,4.14-2.21,3.48,3.31,6.68,5.5,3.22Z"/><path class="cls-18" d="M408.54,106.5s5.22,47.42-89.37,55.07S189.48,167,196.5,253.63c0,0-29.08-125.71,52.56-144.26S363.57,128.81,408.54,106.5Z"/><path class="cls-12" d="M286.61,324.81a43,43,0,1,0,85.81-6.95Z"/><path class="cls-19" d="M712,770c-34.58,7.87-45.1-16-45.36-41.25s18.32-45.83,41.49-46.07,42.18,20,42.44,45.21S734.59,764.86,712,770Z"/><path class="cls-11" d="M746.89,755.18c-13.79.14-25-7.83-25.15-17.81s11-18.17,24.78-18.32,25.06,7.83,25.16,17.81S760.68,755,746.89,755.18Z"/><path class="cls-11" d="M687.19,701.14c18.4-22.54,80.19-12,84.1,15.9s-46.11,20.42-48.53.5c-2-16.74,22.21-13.27,22.21-13.27"/><path class="cls-11" d="M752.14,694.5c-8-28.26-86.81-13.78-85.59,25s73,26.1,49.57-9.77C716.12,709.77,756,708.19,752.14,694.5Z"/><path class="cls-11" d="M735.14,770.8c-11.88-3.94-19.19-14.09-16.35-22.68s14.78-12.36,26.66-8.42,19.19,14.09,16.34,22.67S747,774.73,735.14,770.8Z"/><path class="cls-11" d="M728,782.9c-10-3.32-16.18-11.88-13.78-19.12s12.46-10.42,22.47-7.1,16.18,11.88,13.78,19.12S738.05,786.22,728,782.9Z"/><polygon class="cls-12" points="635.56 749.62 660.25 672.79 694.67 683.65 669.98 760.48 635.56 749.62"/><path class="cls-5" d="M439,567.21,425.43,528.4c8.21-20.68,14.22-57.71-13.45-106.52l-.06-.1c-2.51-4.61,2.33-9.89,7.34-8.35l15.55,4.78a27.72,27.72,0,0,1,17.79,16.31C483.28,514,441,564.8,439,567.21Z"/><path class="cls-6" d="M435.31,571.64l-9.92-43.49a99.57,99.57,0,0,0,6.72-31.1l31.24,1.71C461,541,442.06,563.86,435.31,571.64Z"/><path class="cls-5" d="M176.78,579.9l-7.37-40.43c11.31-19.16,18.58-81.24-1.2-133.75a7.37,7.37,0,0,1,4.11-9.36L187.55,390a7.44,7.44,0,0,1,9.8,4.3C236.39,497.21,179.47,577.61,176.78,579.9Z"/><path class="cls-6" d="M172.48,583.71s-18.38-13.11-19-20c-.67-7.28,15.94-24.52,15.94-24.52,4.39-7.48,4.43-21.81,7.05-34.09l30.6,6.53C198.24,553,180.35,577.07,172.48,583.71Z"/><circle class="cls-21" cx="301.01" cy="218.01" r="218.01"/><path class="cls-12" d="M395.31,377.69c-127.37,0-230.63-103.26-230.63-230.64A229.62,229.62,0,0,1,214.21,4.24C129.57,38.4,69.83,121.31,69.83,218.19c0,127.37,103.26,230.63,230.64,230.63A230.22,230.22,0,0,0,481.58,361,229.88,229.88,0,0,1,395.31,377.69Z"/><path class="cls-22" d="M300.47,448.82c-127.38,0-230.64-103.26-230.64-230.63,0-96.88,59.74-179.79,144.38-213.95C214.21,4.24-43.59,259.05,300.47,448.82Z"/><path class="cls-12" d="M395.7,238.93a3.42,3.42,0,0,1-1.21-.23,3.3,3.3,0,0,1-1.87-4.28l39.64-101.3a3.3,3.3,0,1,1,6.15,2.41l-39.64,101.3A3.31,3.31,0,0,1,395.7,238.93Z"/><path class="cls-12" d="M433.13,234.52a3.16,3.16,0,0,1-1.2-.23,3.29,3.29,0,0,1-1.87-4.28l29.72-76a3.3,3.3,0,1,1,6.15,2.41l-29.72,76A3.3,3.3,0,0,1,433.13,234.52Z"/></g></g></svg>